# xmcd
# 
# Track frame offsets:
#     150
#     10057
#     20885
#     33765
#     51575
#     67770
#     78815
#     93610
#     104300
#     118330
#     129727
#     139590
#     155350
#     166177
#     182332
#     196375
#     207715
#     221360
#     242680
# 
# Disc length: 3459
# 
# Revision: 1
# Processed by: cddbd v1.5.2PL0 Copyright (c) Steve Scherf et al.
# Submitted via: fre:ac v1.1beta1pre5
# 
DISCID=040d8113
DTITLE=Various Artist - The Many Sides Of Country [CD1]
DYEAR=1998
DGENRE=Country
TTITLE0=Statler Brothers - Moments To Remember
TTITLE1=George Jones And Tammy Wynette - Near You
TTITLE2=Kenny Rogers - As Time Goes By
TTITLE3=Forester Sisters - Sincerely
TTITLE4=Willie Nelson - Blue Skies
TTITLE5=Patsy Cline - Love Letters In The Sand
TTITLE6=Eddy Arnold - Memories Are Made Of This
TTITLE7=Emmylou Harris - Mister Sandman
TTITLE8=Hank Williams, Jr. - Rainy Night In Georgia
TTITLE9=Charlie Rich - I'm Gonna Sit Right Down And Write Myself A Letter
TTITLE10=Skeeter Davis - Secret Love
TTITLE11=Kenny Rogers - Unchained Melody
TTITLE12=Ferlin Husky - Raindrops Keep Fallin' On My Head
TTITLE13=Conway Twitty - The Rose
TTITLE14=Floyd Cramer - Could I Have This Dance
TTITLE15=Jim Reeves - Moon River
TTITLE16=Loretta Lynn - Coal Miner's Daughter
TTITLE17=Gary Morris - The Wind Beneath My Wings
TTITLE18=Danny Davis And The Nashville Brass - Somewhere, My Love (Lara's Theme From Doctor Zhivago)
EXTD=
EXTT0=
EXTT1=
EXTT2=
EXTT3=
EXTT4=
EXTT5=
EXTT6=
EXTT7=
EXTT8=
EXTT9=
EXTT10=
EXTT11=
EXTT12=
EXTT13=
EXTT14=
EXTT15=
EXTT16=
EXTT17=
EXTT18=
PLAYORDER=
